<?xml version="1.0" standalone="no"?>
<!DOCTYPE svg PUBLIC "-//W3C//DTD SVG 1.1//EN" "http://www.w3.org/Graphics/SVG/1.1/DTD/svg11.dtd">
<svg version="1.1" xmlns="http://www.w3.org/2000/svg" viewBox="0 0 137.85770948074605 37.12463982511633" width="137.85770948074605" height="37.12463982511633"><!-- svg-source:excalidraw --><metadata><!-- payload-type:application/vnd.excalidraw+json --><!-- payload-version:2 --><!-- payload-start -->eyJ2ZXJzaW9uIjoiMSIsImVuY29kaW5nIjoiYnN0cmluZyIsImNvbXByZXNzZWQiOnRydWUsImVuY29kZWQiOiJ4nKVY227bRlx1MDAxMH33V1x1MDAxOMqrvdnZndnZzWMvXHUwMDBm6VxyXHUwMDA13KIoijwwXHUwMDE2bVx1MDAxM6YlQaR8ieF/71nKXHUwMDExRTcxq5AwZIk7e3YuZy7k49Hx8ax9WJWzd8ez8v68qKv5uribneT7t+W6qZZcdTAwMGIsue53s9yszzvJq7ZdNe/evu13mPPlzXZXWZc35aJtIPdcdTAwMGZ+XHUwMDFmXHUwMDFmP3afWKnmee/PcnN2+unq48Oni59++fPv21//uLunbmsn9FmZi3VZ7lTpVu6zXCKqhkNw7ChcdEeS3epcdTAwMDNWT32KhmJIMURnKf/frd9V8/ZcbjJEaqKo2sTRKlx1MDAwN9tDXFyV1eVVm2XUkONcdTAwMDA0J0TBe7+TKVx1MDAxNpd11s/u7jTtenldfr+sl+us91x1MDAxYpxdptCr/bE4v75cXC83i/lOpl1cdTAwMTeLZlWs4aZe7qKq67P2oUOHq+HW2Ysz/vpswov7X9uFQy+vXHUwMDE2ZdNcZvYsV8V51WZ3ke2tyFx1MDAxYa7ez7uofeh1Wlx1MDAxNzfl+1x1MDAxY7bFpq53t6vFvMzRmFx1MDAxNcXgtMX8+bSBdINA5tPEh1x1MDAxNFx1MDAxMvv+0J5goi9v/rZcXHRcXEM4vUbnuVx1MDAwZmXV/Fx1MDAwMJK1XHUwMDFk6kVRN2Xv66zDjz1cdTAwMDFcdTAwMDd6bFbzYruJVFx1MDAxM+U/sntcdTAwMDfX1eL65Z56eX79hXNWy2qf4fnqv1x1MDAxZPfk6H7svn84+aI0XHUwMDFi65K30XrL1lx1MDAxMaf93WSsVU/Cmlx1MDAwMnlN7Mbg1Fghb61EomTF+pPXzlx1MDAxYUMja3A+9pCnpDH1XHUwMDE5921wsCfaYGMgkuSQhftwYqxcdTAwMGaBg1x1MDAwNElcdTAwMTGmjsOxIeuCRZI6XHUwMDFmyVx1MDAwNj9cclx1MDAwZdVcdTAwMDNmisBcdTAwMWP1lpxOgnPWXHUwMDEwxGNwKCWicVokXFwwOZ5KPkBBXHUwMDE2XHUwMDFm9+E84CglJ2I1Ri8so3jJOHJcdTAwMDLVUOGci2mgnjM2686WXHUwMDA0lVx1MDAxNIXSj+F5a/Y1XGJcdTAwMDflgGfjODnvYZaLoO7+7tOtrzzZXFxcdTAwMGIkgISjeNE4jcIkXHUwMDAx9ViTXGbUOVxyxjKqu1x1MDAxMMzToCGM5iiMS97lYoSmgq4wxNvmnPNQj1x1MDAwMltcdTAwMWXHc8bDTWBcdTAwMDWR9WpcdTAwMDexPI2Ai+hypE5cdTAwMDUsXHUwMDFjRfNcdTAwMDYlwlFO+CA2XHUwMDBlaHu65S1qL8JcdTAwMTPc/3BcdTAwMWWzXHUwMDAxIcSFoEguVjeAO5xpXHUwMDFjjPfqYCdcdTAwMTPcXHUwMDBl6Fx1MDAwMeCWaujI8IWyXHUwMDA0O0q111x1MDAwMcdcdTAwMGJuNF4oRlx1MDAxYsnlolx1MDAxYcO0TFx1MDAxMmvgYExcbqpcdTAwMTRcdTAwMTmAPCnRhYxXXHUwMDFm1YNO3Y5paFx1MDAxOJhcYqlcdTAwMTA5MFxueJRptlx1MDAwNjLMIDnAkKp0kN9cdTAwMDNjdlx1MDAwM/9cdTAwMTJcdTAwMTJcdTAwMDTDXHUwMDE560ReXHUwMDA1mJbQR4BcdTAwMThyfXXTaFx1MDAxZlwi4OAmXHUwMDEwMSAvXHUwMDAzTYRLRpDGXHUwMDBliVx1MDAxY1FcdTAwMWLcxKR8XHUwMDFkbjsm+CheJDNntGSoNahYxEggxVx1MDAxNExcdTAwMDO4w4u/koEoI1x1MDAxME69pKTTWKZcdTAwMGVwXGIooeImZ8Mgslx1MDAwN/dh9Vx1MDAwNn5B38RcdTAwMDNB1zn30V60XHUwMDAyO47GRtgxyq1G4ujdNDQ1XHUwMDEyXHUwMDE4l+ZcdTAwMGWM2E5Kdlx1MDAwNUkw18JrXHUwMDE2M1x1MDAxMZ5hpkU1OpNnK9RYNJWUJE2EXHUwMDEzgzFcclNawrNZbspcdTAwMTPholx0LDYlxIJ1OPpcdTAwMWROuZhMXHUwMDAwXHUwMDBlnOydhYLT0Fx1MDAxMjynzDBcdTAwMDNcdTAwMTmrkadNzclcdTAwMWIkvcJvwMz9blx1MDAxMuVSMIrWiVx1MDAxMoxcdTAwMWWPXHUwMDAxY5CryWCCSIpcbohpRjBQj6Ilo05cdTAwMTSjloIrMpxcIlx1MDAwZkaDXHUwMDExRtmikJFHNPwwqtu5XGJcdTAwMDMrYVxcUFxm1ONwauB9XGZYOD9iYJjWS9FrXGbQrHds8+g2XHUwMDFjXHUwMDAyXHUwMDBmn2Ngh4l4QmOwKlx1MDAxMcbVg9rp199kdKtcdTAwMDc/OL6Od3h+fjve0Vx1MDAwYtzZal02zVx1MDAwNlx1MDAxZsPXXHUwMDEzTXWzqfFM//vzMlbb9abslp+Onlx1MDAwMWbFanXWQlxuq9tXUbPbqrz77r+vZd5cXHTXXGZCT93Oi6rujnx8Onr6XHUwMDE39JV1KSJ9<!-- payload-end --></metadata><defs><style class="style-fonts">
      </style></defs><g transform="translate(10 18.05866217275127) rotate(0 58.928854740373026 0.5036577398068971)" stroke="none"><path fill="#868e96" d="M 1.04,-1.82 Q 1.04,-1.82 3.01,-0.57 4.98,0.67 6.50,1.07 8.03,1.48 9.23,1.96 10.43,2.44 13.06,2.61 15.69,2.78 16.74,2.50 17.79,2.22 20.12,1.94 22.46,1.65 24.22,1.25 25.97,0.85 28.29,-1.16 30.61,-3.19 32.61,-4.43 34.61,-5.67 35.98,-6.55 37.35,-7.42 39.14,-8.08 40.92,-8.75 42.19,-8.17 43.47,-7.59 44.33,-6.60 45.19,-5.62 46.64,-3.92 48.08,-2.22 48.73,-1.15 49.37,-0.08 50.38,0.52 51.38,1.14 52.80,1.02 54.21,0.90 55.90,0.19 57.58,-0.50 59.19,-1.58 60.81,-2.66 62.45,-3.76 64.09,-4.87 65.14,-5.49 66.19,-6.12 66.86,-6.39 67.52,-6.66 67.77,-6.75 68.01,-6.83 68.27,-6.85 68.52,-6.88 68.78,-6.84 69.04,-6.80 69.27,-6.70 69.51,-6.60 69.72,-6.45 69.93,-6.30 70.10,-6.10 70.26,-5.90 70.38,-5.67 70.49,-5.44 70.54,-5.18 70.60,-4.93 70.59,-4.67 70.58,-4.41 70.51,-4.16 70.45,-3.92 70.32,-3.69 70.19,-3.46 70.02,-3.28 69.84,-3.09 69.62,-2.95 69.40,-2.81 70.70,-1.71 72.00,-0.61 72.98,0.95 73.96,2.52 75.24,1.75 76.52,0.98 78.27,0.45 80.02,-0.07 81.65,-0.23 83.28,-0.38 85.07,-0.12 86.86,0.13 89.23,0.58 91.60,1.02 92.92,1.98 94.24,2.94 95.42,4.18 96.60,5.43 98.17,5.52 99.74,5.61 101.58,4.70 103.41,3.79 106.67,1.70 109.92,-0.37 111.94,-0.89 113.97,-1.41 116.58,-0.52 119.19,0.36 119.42,0.61 119.65,0.87 119.78,1.19 119.92,1.50 119.94,1.85 119.97,2.19 119.89,2.52 119.80,2.86 119.62,3.15 119.43,3.44 119.16,3.65 118.89,3.86 118.57,3.98 118.25,4.10 117.90,4.11 117.56,4.12 117.23,4.01 116.90,3.91 116.62,3.71 116.34,3.51 116.14,3.23 115.94,2.95 115.84,2.62 115.74,2.29 115.76,1.95 115.77,1.60 115.89,1.28 116.01,0.96 116.22,0.69 116.44,0.42 116.73,0.24 117.02,0.05 117.35,-0.02 117.69,-0.10 118.03,-0.07 118.37,-0.04 118.69,0.09 119.00,0.22 119.26,0.45 119.52,0.68 119.68,0.98 119.85,1.28 119.92,1.62 119.98,1.96 119.93,2.30 119.88,2.64 119.73,2.95 119.58,3.26 119.33,3.50 119.09,3.74 118.78,3.89 118.47,4.04 118.13,4.09 117.79,4.14 117.45,4.07 117.11,4.00 116.81,3.83 116.51,3.66 116.51,3.66 116.51,3.66 115.64,3.09 114.76,2.52 113.43,2.75 112.10,2.98 108.82,5.38 105.54,7.78 102.91,9.25 100.27,10.72 98.58,10.72 96.90,10.72 95.05,9.97 93.19,9.22 91.61,7.63 90.02,6.05 88.04,5.63 86.06,5.22 84.90,5.02 83.74,4.82 81.65,5.07 79.56,5.33 78.28,6.23 77.01,7.14 75.21,7.54 73.41,7.94 72.11,7.25 70.80,6.56 69.79,4.72 68.78,2.88 68.28,1.80 67.79,0.72 67.39,-0.64 67.00,-2.02 67.26,-4.34 67.52,-6.66 67.76,-6.75 68.01,-6.83 68.27,-6.85 68.52,-6.88 68.78,-6.84 69.04,-6.80 69.27,-6.70 69.51,-6.60 69.72,-6.45 69.93,-6.30 70.10,-6.10 70.26,-5.90 70.38,-5.67 70.49,-5.44 70.54,-5.18 70.60,-4.93 70.59,-4.67 70.58,-4.41 70.51,-4.16 70.45,-3.92 70.32,-3.69 70.19,-3.46 70.02,-3.28 69.84,-3.09 69.62,-2.95 69.40,-2.81 67.78,-2.35 66.15,-1.90 64.58,-0.77 63.02,0.35 61.18,1.80 59.34,3.25 56.99,4.40 54.64,5.55 52.01,5.72 49.38,5.89 48.37,5.29 47.36,4.70 46.26,3.59 45.16,2.49 44.35,0.63 43.55,-1.21 42.58,-2.04 41.60,-2.88 40.40,-3.59 39.20,-4.29 37.84,-3.56 36.48,-2.82 34.79,-1.64 33.11,-0.46 31.47,1.16 29.83,2.80 28.41,3.66 26.99,4.52 25.06,5.04 23.13,5.55 20.88,6.06 18.63,6.57 17.06,6.80 15.50,7.02 13.66,6.93 11.82,6.85 9.41,5.98 6.99,5.11 5.06,4.53 3.12,3.96 1.04,2.89 -1.04,1.82 -1.24,1.67 -1.44,1.52 -1.60,1.32 -1.76,1.13 -1.87,0.90 -1.98,0.67 -2.04,0.42 -2.09,0.17 -2.08,-0.07 -2.07,-0.32 -2.00,-0.57 -1.93,-0.81 -1.80,-1.03 -1.68,-1.25 -1.50,-1.43 -1.33,-1.62 -1.12,-1.75 -0.90,-1.89 -0.66,-1.97 -0.42,-2.05 -0.17,-2.07 0.07,-2.09 0.32,-2.05 0.57,-2.01 0.80,-1.92 1.04,-1.82 1.04,-1.82 L 1.04,-1.82 Z"></path></g></svg>