<?xml version="1.0" standalone="no"?>
<!DOCTYPE svg PUBLIC "-//W3C//DTD SVG 1.1//EN" "http://www.w3.org/Graphics/SVG/1.1/DTD/svg11.dtd">
<svg version="1.1" xmlns="http://www.w3.org/2000/svg" viewBox="0 0 235.56874047364056 43.168671038640014" width="235.56874047364056" height="43.168671038640014"><!-- svg-source:excalidraw --><metadata><!-- payload-type:application/vnd.excalidraw+json --><!-- payload-version:2 --><!-- payload-start -->eyJ2ZXJzaW9uIjoiMSIsImVuY29kaW5nIjoiYnN0cmluZyIsImNvbXByZXNzZWQiOnRydWUsImVuY29kZWQiOiJ4nLVYTW/jNlx1MDAxML3nV1x1MDAwNN7rlsshZ4bkXHUwMDFl+4F2W7QokEPRXHUwMDE2e1BtOVx1MDAxMaLYhqXsbrDIf++jklqh98OxhergXHUwMDBmceaRnHnzhtLHs/PzWX+3qWevz2f1h3nVNott9X72Mt9/V2+7Zr3CkFx1MDAxYv5369vtfLC86vtN9/rVq9HDzNc3XHUwMDBmXnVb39SrvoPd3/h/fv5x+MRIs8i+XHUwMDFif/fTr1wiN1x1MDAxN+0vf1x1MDAwNv6Rov95uVx1MDAxY1xcXHUwMDA3o/9cdTAwMTaz3Nb1binDyFx1MDAwN9yOzlx1MDAxYvZJvHNJldjvRu8wXHUwMDFhxDiJ4lwiXHUwMDA1n2KicfR9s+iv8kZIjGhcZmw5eGUrujO5qpvLqz7beENcdTAwMWE1kPVcdTAwMTEmlnhnU60u27w6u7vT9dv1df3dul1v86pfzOtcdTAwMDUvqnHR/1Tz68vt+na12Nn022rVbaotgjTaLZu2vejvXHUwMDA2dFx1MDAwNFx1MDAxYUGd7c3xx+NcdTAwMTZo7/6XvDDp5dWq7rrCZ72p5k2fg0V23EVe4ebNYsjZ23FN2+qmfpOTtrpt293tZrWocy5m1V/FbKvF42yFdYc05sRplOCcXHUwMDFmYzmyS+3+zd/Wq4FoZJNcdTAwMTXh6MY0Nd33YFg/gC6rtqvHUOcl/DCyr1jG7WZRPThRXGKJXHUwMDAycJl0jEvbrK73fdr1/Poz82zWzVN652v8dT5yY/iz+/325WetvyFjbXCavFx1MDAwNtX89dTdXHUwMDE5sE+9TZKcXHUwMDBiwbqDcKWHxMhP8byxjlJyXCI2xOiF5SAgwyU5pUSRRVx1MDAxY+I2XHUwMDExMFx1MDAxYStRSa3aaNmlMG3DXHUwMDE0XHJ5SlwiPpe0JVfgPYTXK0lcIlGLXHUwMDEwXHUwMDFm3rAzXHUwMDFlm0lcdTAwMTJcYlxuoKlIyEM4sE9icDmRo4N4XHUwMDAyvEiwXHUwMDBmnqwmrGEqoFx1MDAwN2BcdTAwMTTLXHUwMDEwQUX8/FQ8NlDUqFxiXHUwMDExU7KcZCqgXHUwMDE4tp58XHUwMDE2YlQ9l1x1MDAwYjw+xaKGXHTrgm57pmjjxFxmS1x1MDAwMF6IXHUwMDEyWTmBtsV+SzhcdTAwMTXHh/GiYSdgXvROWUJcdFjGXHUwMDBm4IfxXHUwMDEyepzjmNixs8pFXHSLXHUwMDAxKdV5gX6jiOQwnNrcMiNcdTAwMWNIglx1MDAwNvdcdTAwMTQtoFx1MDAxOMlzXHUwMDE2XHUwMDFl8oHD4fJVMsyBXHUwMDFjmqNnpKNYXHUwMDFjWYPgeZ9cdTAwMWNmRCv2h+HQz1x1MDAxNdLiRVVwXHUwMDE1xUFIRsw6oYR8uOfkVsGViKXBXHUwMDAzZPGJXG48cC+GXHUwMDA0zoGekrl0XHUwMDEwL5BcdTAwMTFnWZKifiWVanVcdTAwMDJedEYtdFx1MDAwMFx1MDAwN1x1MDAxOUhcZup34n5jMOpcdTAwMDOYl4KL6opsJFx1MDAwM/6mXHUwMDEwQGKvYvVwNpJcdTAwMThcYlx1MDAxZc481oNkXHUwMDFhp/GYrDPgVGCQTrPWXHUwMDE3eCdIPeiF8HikXCKGXHUwMDFjpXRkqyVvokOXXHUwMDEy73PAylb2XHUwMDFjfzbwXHUwMDBlpMkl9IdwrLuYiIZcdTAwMTezaCNV6ifqXHUwMDBlkVx1MDAxYfRcdTAwMDHP0DC0Z5na6r+Kd0L6v1x1MDAwNne8jKGgXHUwMDAxXHUwMDA3oiSOXHUwMDE2nCqzd7yQXHUwMDExTlx1MDAwZfGhXHUwMDAxcGRCRqfVztfxTihtomRiQLTR6SE8PshUQCcmkXpwglx0vOCpYouAm1x1MDAwNCWD+iVILepqKiCDtmxcdTAwMTOBt2gyKU3sLiRwgbwglWChlEelU+DY4Fx1MDAwMKTO4rkkd2Y3XHUwMDE1L1x1MDAxOGxZXHTHXHUwMDA2i82WinJcbl4yJFx1MDAxMfZqrXM4QkzNXHUwMDA32jPFkFx1MDAwYlx1MDAwMSecQHuAanKXxXR4MrDI2DPwXHUwMDEwQNSv5rM1OuBeXHUwMDAwPznKT1x1MDAwNUQ4PFx1MDAwNEEj2neyMT0jhFx1MDAxYVxmMlx1MDAxYyW/XrBO91JyXHUwMDAyYHDGXHS6hvjEeLxcdTAwMTOZXG5cdTAwMTjJPI1SeaA7Picgs2GJXHUwMDAxXHUwMDE3JU2xTDHqMaFd4oFcdTAwMTn1iFx1MDAwM84z8OCTXHUwMDA1XHUwMDA2fsRZXHUwMDA3w2TAL72z+X9WeHxcdTAwMDRRWTm7UFx1MDAxOFx1MDAxMTS68lx1MDAxMfRcdTAwMDRWO1x1MDAxYyxcdTAwMDWnJlx1MDAwZdAu4E2tklx1MDAwM1x1MDAxYoZcYjmccH1cdTAwMDCupuf0ztNcdTAwMDHP9oBnm23ddbf4KN89dc3NbVv19e+Pw1x1MDAxOO23t/UwfH/2XGIwqzabi1x1MDAxZVZcdTAwMTh9eMs4e9fU77/99J3bi+VwzWB0P3gum3aY8uP92f2/OFx1MDAxMsNoIn0=<!-- payload-end --></metadata><defs><style class="style-fonts">
      </style></defs><g transform="translate(225.56874047364056 14.02935414234912) rotate(0 -107.78437023682028 7.554981376970886)" stroke="none"><path fill="#ced4da" d="M 1.22,1.63 Q 1.22,1.63 -0.01,2.56 -1.24,3.50 -3.39,3.76 -5.53,4.01 -9.39,3.04 -13.24,2.08 -21.63,0.79 -30.02,-0.49 -36.46,-1.06 -42.90,-1.63 -45.94,-1.89 -48.98,-2.16 -50.49,-2.20 -52.00,-2.23 -53.06,-1.18 -54.12,-0.13 -54.83,1.51 -55.54,3.17 -56.09,4.16 -56.64,5.15 -57.52,7.17 -58.41,9.20 -59.44,10.43 -60.47,11.66 -62.00,12.54 -63.54,13.42 -65.92,13.70 -68.30,13.99 -72.53,13.69 -76.75,13.39 -80.05,12.62 -83.36,11.85 -87.19,9.99 -91.01,8.13 -94.51,6.79 -98.00,5.46 -101.78,4.30 -105.56,3.14 -107.98,2.65 -110.41,2.15 -111.72,2.05 -113.04,1.95 -113.75,3.04 -114.45,4.13 -114.78,5.46 -115.11,6.80 -115.61,8.55 -116.12,10.30 -116.96,11.40 -117.79,12.49 -120.34,12.88 -122.89,13.27 -126.39,13.20 -129.89,13.13 -133.74,12.76 -137.60,12.38 -141.19,12.19 -144.78,12.00 -147.47,11.89 -150.15,11.78 -152.16,11.75 -154.17,11.71 -155.37,12.02 -156.57,12.34 -158.02,13.68 -159.47,15.03 -160.38,16.22 -161.30,17.41 -163.15,19.02 -165.00,20.62 -167.16,20.77 -169.32,20.92 -173.00,20.00 -176.69,19.08 -183.58,17.81 -190.46,16.54 -197.10,15.99 -203.74,15.43 -207.00,15.12 -210.26,14.81 -212.20,16.84 -214.13,18.86 -214.39,18.72 -214.66,18.58 -214.86,18.37 -215.07,18.15 -215.19,17.88 -215.32,17.62 -215.35,17.32 -215.38,17.03 -215.32,16.73 -215.26,16.44 -215.10,16.19 -214.95,15.93 -214.73,15.74 -214.50,15.55 -214.22,15.44 -213.95,15.33 -213.65,15.31 -213.36,15.29 -213.07,15.37 -212.78,15.45 -212.54,15.62 -212.29,15.78 -212.11,16.02 -211.93,16.26 -211.83,16.54 -211.74,16.82 -211.74,17.11 -211.74,17.41 -211.83,17.69 -211.92,17.98 -212.10,18.21 -212.28,18.45 -212.53,18.62 -212.77,18.78 -213.06,18.86 -213.35,18.94 -213.64,18.93 -213.94,18.91 -214.22,18.80 -214.49,18.70 -214.72,18.50 -214.95,18.31 -215.10,18.06 -215.25,17.80 -215.32,17.51 -215.38,17.22 -215.35,16.93 -215.32,16.63 -215.20,16.36 -215.07,16.09 -214.87,15.88 -214.66,15.66 -214.40,15.52 -214.14,15.38 -213.85,15.33 -213.55,15.28 -213.26,15.33 -212.97,15.38 -212.97,15.38 -212.97,15.38 -213.32,14.96 -213.68,14.54 -212.19,13.28 -210.71,12.02 -207.10,12.14 -203.49,12.27 -196.69,12.75 -189.89,13.22 -182.87,14.37 -175.85,15.53 -172.71,16.22 -169.57,16.91 -167.93,16.77 -166.29,16.62 -165.15,15.89 -164.01,15.16 -162.83,13.86 -161.66,12.56 -159.57,10.77 -157.49,8.98 -155.82,8.73 -154.15,8.49 -152.12,8.49 -150.10,8.49 -147.38,8.48 -144.67,8.46 -141.00,8.49 -137.34,8.52 -133.66,8.66 -129.98,8.80 -126.66,8.59 -123.34,8.37 -122.20,8.67 -121.06,8.98 -120.78,7.81 -120.51,6.64 -119.72,5.19 -118.93,3.73 -118.14,2.18 -117.36,0.62 -116.24,-0.20 -115.13,-1.04 -113.88,-1.19 -112.63,-1.35 -111.24,-1.03 -109.85,-0.72 -107.27,-0.25 -104.69,0.21 -100.79,1.33 -96.90,2.44 -93.22,3.73 -89.55,5.02 -86.07,6.62 -82.58,8.21 -79.57,8.74 -76.56,9.27 -72.75,9.32 -68.93,9.37 -67.39,9.11 -65.85,8.85 -64.41,8.03 -62.98,7.21 -62.42,5.85 -61.86,4.48 -60.78,2.89 -59.71,1.30 -59.02,-0.08 -58.33,-1.47 -56.61,-2.96 -54.90,-4.45 -53.49,-5.00 -52.09,-5.54 -50.43,-5.39 -48.76,-5.24 -45.70,-5.06 -42.64,-4.88 -36.08,-4.41 -29.52,-3.94 -20.95,-2.79 -12.38,-1.63 -9.04,-0.92 -5.69,-0.21 -4.54,-0.12 -3.38,-0.03 -2.30,-0.83 -1.22,-1.63 -1.01,-1.75 -0.79,-1.87 -0.56,-1.94 -0.32,-2.01 -0.07,-2.02 0.16,-2.03 0.40,-1.98 0.64,-1.93 0.87,-1.83 1.09,-1.72 1.28,-1.56 1.47,-1.41 1.62,-1.21 1.76,-1.01 1.86,-0.79 1.96,-0.56 2.00,-0.32 2.03,-0.08 2.01,0.16 1.99,0.41 1.92,0.64 1.84,0.87 1.71,1.08 1.58,1.29 1.40,1.46 1.22,1.63 1.22,1.63 L 1.22,1.63 Z"></path></g></svg>