<?xml version="1.0" standalone="no"?>
<!DOCTYPE svg PUBLIC "-//W3C//DTD SVG 1.1//EN" "http://www.w3.org/Graphics/SVG/1.1/DTD/svg11.dtd">
<svg version="1.1" xmlns="http://www.w3.org/2000/svg" viewBox="0 0 71.37387336340203 49.21261002826981" width="71.37387336340203" height="49.21261002826981"><!-- svg-source:excalidraw --><metadata><!-- payload-type:application/vnd.excalidraw+json --><!-- payload-version:2 --><!-- payload-start -->eyJ2ZXJzaW9uIjoiMSIsImVuY29kaW5nIjoiYnN0cmluZyIsImNvbXByZXNzZWQiOnRydWUsImVuY29kZWQiOiJ4nO1XTXPbNlx1MDAxML37V2iUq4Ng8Y1cdTAwMWNbp5n40GacNG6nk1x1MDAwMyvSNmtaVEnKjsbj/55cdTAwMDdKIUPKXHUwMDE27JHbXqqDRsJcdTAwMDJcdTAwMGaL3Yfdh9uDyWTarFx1MDAxNtn09WSafZklRZ5Wyc30MIxfZ1Wdl3OYRPu/LpfVrJ150TSL+vWrV/1cbjYrr9arslwiu8rmTY15f+D/ZHLbfsOSp2Ht9S8ndP32V+NWp3TCj2/+PjpcdTAwMTY/tUvbSd+cOauyrHOltXzBsPeWWW6d5M4qY4XurCtYX0ohmJGWrOSaK8Od7Ow3edpcXGCOUlxms7QwxnJhlO5cdTAwMTEusvz8olx0p1x1MDAxNYxcZlx0I6XUJIWUopuTzM+L4Fx1MDAxZe9G6qYqL7NcdTAwMWbLoqyC2y9mWarSpPf6z2R2eV6Vy3nazWmqZF4vklxuUernneVF8aFZteiINKI6XHUwMDFk7XG6OVx1MDAwMY3GXHUwMDFmWoVNzy/mWV1cdTAwMGbWlItkljchWsT7U1x1MDAwNFx1MDAwZlx1MDAxN+/SNmmfe5+q5Cp7XHUwMDE3sjZfXHUwMDE2RTecz9MsJGOa/DbYbZ5udlx1MDAxYsyukcewmzRCIKzSdZbv+EXjwZ/LeUs1kpK04uT6XHUwMDFj5PVcdTAwMTE41rSoZ0lRZ32sg1x1MDAwZm96/lxy/Fgu0mS9iKz1ZD331kvT2Yt8fjleU5Szy3v2WZT591x1MDAwNFx1MDAwZp/+16QnR/un+/35MD77JTHObTiy9YiV9UrE1lx1MDAwYsZJXHUwMDE5yb32QljtnFx1MDAxYVx1MDAwMFrGQWLOtSPyXFybXHUwMDE4nGRcXJD3QmtcXDMntdJD/ziDf8JLkuSt86RjgFxugF5cdTAwMTjy5HDbXHUwMDEw+yFcdTAwMWX281o4bZywuNDGx/BcZuNKeqeJk8Zcbu6HeIZcdTAwMTFZYVx1MDAxZK6t1tpcYlx1MDAxNcNzXGKQM2Q4ylx1MDAwNVfCj/yzjITSXHUwMDFlRUWS8YpcXFxmzzNutLfWaCGN5kZcdTAwMGXxXHUwMDFjXHUwMDBikdNacoUqRcLG8DZcdTAwMTFXKFecS3LOXGZcdTAwMDE9XHUwMDAwvVxiRVFJXHUwMDA0xkZcdTAwMWQkMMZZXHUwMDFm8EA0iSNcclx1MDAwMFx1MDAwNWfgXHUwMDEzQoJcdTAwMDLoNUptlIDEXHUwMDAw45V1XGI4kjyCXHUwMDFiWnU0XHUwMDFmklx1MDAxOHhMXjmLXHUwMDE1XFz7IVx1MDAwMbeLc1x1MDAxNNAx8EErXHUwMDAyx4yzo/vxdDzFWeA/mo9AXHUwMDFk0cbsiydcdTAwMTnyQCZcXDjLUev2xXuow/3reFx1MDAwNyPc6aJCg1jia9hn6vxqWaA4v9+YYW2qZdaa71x1MDAwZe9cdTAwMTNcdTAwMTGfjk+Wb9+cnaZ/rT59LIujj+9cdTAwMWK+eKyIIC4l81BcdIqUU3C6u/JcdTAwMWJcdTAwMTWhiTnlg8pARiQ3XHUwMDFkYzpcdTAwMTVBmlx1MDAxMffeoOCC2yhqfXvqZMT6ZqJqOMzz3PlejPwvI1x1MDAwNjLi9yfIXGKrLVxuMsTEfTLCjlx1MDAwN7/JXGKwUzl0mF58PJuKUChcdTAwMDN9XFz+K1x1MDAxNdHqXHUwMDA2dE9pbLinatjG1qrCkFx1MDAwZfWKo2fGi/pOVbG2WjRcdTAwMWQ0W1x1MDAwNcgo3lBcdTAwMDUoviecZlxcXHUwMDFhI3BTOWSAV4Mmuy1hYnCtSFx1MDAxMlop48Etq1x1MDAwN5qidVx1MDAxZCikhFRcdTAwMWXVYC9cdTAwMDWw9tygJFAoXHUwMDBicf007P+CaE+4nd1/S1xcReFcdTAwMWUshF1cXKWCf9CL9lx1MDAxMeJpN9xaquGoXHUwMDEwePox0lx0vHdB11x1MDAxOVx1MDAwMklcdTAwMDTycbhcdTAwMTVYKUPKQVx1MDAxNmujrNspXHUwMDE1x4G10VTshmuFMV4/eFx1MDAwM1hC6KK020liUlxiLLo3XCKn0PBcdTAwMWUhXHUwMDEzd+rs54ZcdTAwMWKmPa45d97/J6PtLE7rXHUwMDE3XHUwMDA1LqCEjYtHXGLYnS+o54Zr3ydQ6k5ooqDC9qvs4/dJnHZcdTAwMTG8LVx1MDAxMfTP4T2L3DzYXHUwMDAwTJPF4kODWbCuxef0Os9uftjWYS/O2s/0YCNWg1x1MDAwNmu3vL07uPtcbmn4xeQifQ==<!-- payload-end --></metadata><defs><style class="style-fonts">
      </style></defs><g transform="translate(10 39.21261002826981) rotate(0 22.161263335132276 -11.080631667566166)" stroke="none"><path fill="#ced4da" d="M -2.10,-0.60 Q -2.10,-0.60 -1.41,-2.59 -0.73,-4.59 -0.17,-6.34 0.37,-8.08 0.88,-9.71 1.39,-11.33 2.25,-13.03 3.12,-14.74 4.16,-15.96 5.19,-17.17 6.37,-18.56 7.54,-19.94 8.57,-20.69 9.59,-21.44 13.00,-21.98 16.40,-22.52 20.63,-22.92 24.85,-23.33 28.71,-23.47 32.57,-23.61 34.77,-23.64 36.98,-23.67 38.80,-23.73 40.61,-23.80 42.45,-23.93 44.29,-24.05 44.59,-24.01 44.89,-23.96 45.17,-23.82 45.44,-23.68 45.66,-23.46 45.87,-23.25 46.00,-22.97 46.14,-22.69 46.17,-22.39 46.21,-22.08 46.15,-21.78 46.09,-21.48 45.94,-21.22 45.78,-20.95 45.55,-20.75 45.32,-20.55 45.04,-20.43 44.75,-20.31 44.45,-20.29 44.14,-20.27 43.85,-20.35 43.55,-20.42 43.29,-20.59 43.03,-20.76 42.85,-21.00 42.66,-21.24 42.55,-21.53 42.45,-21.82 42.45,-22.13 42.44,-22.43 42.53,-22.73 42.63,-23.02 42.81,-23.27 42.99,-23.51 43.24,-23.69 43.49,-23.86 43.79,-23.95 44.08,-24.04 44.39,-24.03 44.70,-24.01 44.98,-23.91 45.27,-23.80 45.51,-23.60 45.74,-23.41 45.91,-23.15 46.07,-22.89 46.14,-22.59 46.21,-22.29 46.18,-21.98 46.15,-21.68 46.03,-21.40 45.90,-21.12 45.70,-20.89 45.49,-20.66 45.22,-20.52 44.95,-20.37 44.65,-20.31 44.35,-20.26 44.35,-20.26 44.35,-20.26 42.52,-20.33 40.69,-20.40 38.90,-20.38 37.12,-20.37 34.94,-20.22 32.77,-20.07 29.04,-19.77 25.32,-19.48 21.24,-18.86 17.15,-18.25 14.64,-17.75 12.14,-17.25 10.89,-16.39 9.65,-15.54 8.12,-14.22 6.59,-12.90 5.86,-11.50 5.13,-10.11 4.60,-8.52 4.08,-6.94 3.56,-5.22 3.04,-3.51 2.57,-1.45 2.10,0.60 1.99,0.84 1.89,1.08 1.73,1.29 1.58,1.50 1.37,1.67 1.17,1.84 0.93,1.95 0.69,2.07 0.44,2.12 0.18,2.17 -0.07,2.16 -0.34,2.15 -0.59,2.08 -0.84,2.01 -1.07,1.88 -1.30,1.75 -1.49,1.56 -1.68,1.38 -1.82,1.16 -1.97,0.94 -2.05,0.69 -2.13,0.44 -2.16,0.18 -2.18,-0.08 -2.14,-0.34 -2.10,-0.60 -2.10,-0.60 L -2.10,-0.60 Z"></path></g><g transform="translate(46.263910609460254 10) rotate(0 7.554981376970886 9.569658448145447)" stroke="none"><path fill="#ced4da" d="M 1.15,-2.31 Q 1.15,-2.31 2.32,-1.74 3.48,-1.17 4.43,-0.57 5.39,0.01 7.15,0.92 8.91,1.83 10.42,2.34 11.93,2.84 13.12,3.30 14.31,3.76 14.81,4.19 15.31,4.62 15.63,4.78 15.94,4.94 16.20,5.17 16.46,5.39 16.67,5.68 16.87,5.96 17.00,6.29 17.12,6.61 17.17,6.96 17.22,7.30 17.18,7.65 17.14,8.00 17.02,8.32 16.90,8.65 16.71,8.94 16.52,9.23 16.26,9.47 16.00,9.70 15.69,9.87 15.39,10.03 15.05,10.12 14.71,10.21 14.36,10.21 14.01,10.22 13.67,10.14 13.34,10.06 12.44,11.49 11.54,12.92 10.70,14.06 9.87,15.20 8.35,16.40 6.83,17.60 5.91,18.87 4.99,20.13 4.75,20.58 4.51,21.03 4.14,21.38 3.78,21.73 3.31,21.95 2.85,22.16 2.35,22.22 1.84,22.27 1.35,22.16 0.85,22.05 0.41,21.79 -0.01,21.53 -0.34,21.14 -0.67,20.76 -0.86,20.28 -1.05,19.81 -1.08,19.31 -1.10,18.80 -0.97,18.31 -0.83,17.82 -0.55,17.40 -0.26,16.98 0.13,16.67 0.54,16.36 1.02,16.20 1.50,16.03 2.01,16.03 2.51,16.03 3.00,16.20 3.48,16.36 3.88,16.66 4.29,16.97 4.57,17.39 4.86,17.81 5.00,18.30 5.13,18.79 5.11,19.30 5.08,19.81 4.89,20.28 4.70,20.75 4.37,21.14 4.05,21.53 3.61,21.79 3.18,22.05 2.68,22.16 2.18,22.27 1.68,22.22 1.17,22.16 0.71,21.95 0.25,21.74 -0.11,21.39 -0.48,21.04 -0.72,20.59 -0.96,20.14 -1.04,19.64 -1.12,19.14 -1.04,18.64 -0.96,18.13 -0.96,18.13 -0.96,18.13 1.54,15.48 4.05,12.83 5.36,11.59 6.67,10.36 7.49,9.45 8.31,8.55 9.48,7.65 10.64,6.74 12.98,5.68 15.31,4.62 15.63,4.78 15.94,4.94 16.20,5.17 16.46,5.39 16.67,5.68 16.87,5.96 17.00,6.29 17.12,6.61 17.17,6.96 17.22,7.30 17.18,7.65 17.14,8.00 17.02,8.32 16.90,8.65 16.71,8.94 16.52,9.23 16.26,9.47 16.00,9.70 15.69,9.87 15.39,10.03 15.05,10.12 14.71,10.21 14.36,10.21 14.01,10.22 13.68,10.14 13.34,10.06 12.78,9.53 12.23,9.00 10.94,8.55 9.64,8.11 8.00,7.42 6.35,6.73 5.35,6.18 4.35,5.63 2.75,4.56 1.14,3.48 -0.00,2.90 -1.15,2.31 -1.41,2.14 -1.68,1.97 -1.89,1.74 -2.10,1.51 -2.25,1.24 -2.40,0.96 -2.48,0.66 -2.56,0.36 -2.57,0.05 -2.57,-0.26 -2.50,-0.56 -2.44,-0.87 -2.30,-1.15 -2.16,-1.43 -1.95,-1.66 -1.75,-1.90 -1.50,-2.08 -1.24,-2.27 -0.95,-2.38 -0.66,-2.50 -0.36,-2.54 -0.05,-2.59 0.26,-2.55 0.57,-2.52 0.86,-2.42 1.15,-2.31 1.15,-2.31 L 1.15,-2.31 Z"></path></g></svg>