<?xml version="1.0" standalone="no"?>
<!DOCTYPE svg PUBLIC "-//W3C//DTD SVG 1.1//EN" "http://www.w3.org/Graphics/SVG/1.1/DTD/svg11.dtd">
<svg version="1.1" xmlns="http://www.w3.org/2000/svg" viewBox="0 0 63.315257302597956 55.25659512984652" width="63.315257302597956" height="55.25659512984652"><!-- svg-source:excalidraw --><metadata><!-- payload-type:application/vnd.excalidraw+json --><!-- payload-version:2 --><!-- payload-start -->eyJ2ZXJzaW9uIjoiMSIsImVuY29kaW5nIjoiYnN0cmluZyIsImNvbXByZXNzZWQiOnRydWUsImVuY29kZWQiOiJ4nK1XTW/bRlx1MDAxML37V1xiyjXezMfO7G6OTYpcIpeiSIqmSJFcdTAwMDMj0Vx1MDAxNmFaXHUwMDEySMqOYfi/d0ipoig3JlxuVoBcdTAwMDSRO/N2OPPmcfbxYjabN1x1MDAwZtt8/nY2z78vsrJYVtn9/HV7/y6v6mKztiXqruvNrlp0lqum2dZv37zpPdxic7v3ysv8Nl83tdn9Zdez2WP3ayvFsvUt/1xcvH/3x+eHy18+ktytdvWXL1x1MDAxZn/vXFw7o3+Cuary/Fx1MDAxOEq38t1uI2JwXHUwMDEyXHUwMDAxXHUwMDAzMnr1isflXHUwMDA3W77E5F1cdTAwMDDFXHUwMDAwnkNgicfl+2LZrMzEs2NcdTAwMTSSwECSQlx1MDAxMj2arPLietWYXHKLI1FJgpSiV6GjSba+Ltvw4HinbqrNTf5uU26qNuxXUWOetI/6W7a4ua42u/XyaNNU2breZpVlqbe7KsryU/PQoVumLavzsz0+XHUwMDFmnlx1MDAwMM/u/8jLNr1erfO6XHUwMDFl+Gy22aJo2mQh9E/RRrj9sOyK9rWPqcpu81x1MDAwZm3V1ruyPN4u1su8LcY8+zbYbb087Dawrq2O7W5RQVx1MDAwMkjsk9nzy+v5zV83645qPkJcIlx1MDAxZqn3Kur3RrGmXHUwMDAzvcrKOu9T3Ybwc0+/QVx1MDAxOLvtMts7YVxiXHRDXCKrK/rjelmsb859ys3i5l/22W6KU363n/7frOdGd3H8//X1uPUlOTBaMyRJREG90Ji/OqN6ioKAXHUwMDEyNEBcdTAwMWHgeVx1MDAwN5RcdTAwMThcIjB4IFx1MDAwMpExvOBAkL1qYuTgg0zEQ3BcdTAwMTCY2apoX4k8XHUwMDE1XHUwMDBmnZkrREW0JMU4wGPDw2T7XGKEXHUwMDE4Wfw0vNHqoW2YhNn45Fx1MDAwM3qM/tR9X81cdTAwMTAgmGx5UeBRvOCQvCRu9U2NXHUwMDA1p3DRSlx1MDAxM1VcdFx1MDAwM1x1MDAwNZOmMFxullx1MDAxY7KVUWNSSlx1MDAxMNMg98mBSVxcXGLWXHUwMDA2rFx1MDAwMjpcdTAwMWFcdTAwMWKhQ2F7zihcIvakg0ydldm0d1x1MDAxNI5cdTAwMWMqXHUwMDFh1b23XHUwMDA0tU0+XHUwMDExzztcZpK8XHUwMDExyVx1MDAxYUgj60Q8cVx1MDAxOJnB6Fx1MDAxNKJcdTAwMDZcdTAwMDWahsfgTqlcdTAwMTnCVDxyxF7EXoJGL5z6uMyOPCaMLcdcdTAwMDIhT4RTR8pcdK2zkleYWlxcjo6Md1x1MDAxZUXtXHUwMDA1XHUwMDFiIUyES46iJLDeXHUwMDAwI95krozg7SVGfCC2XHUwMDA2UvJcdTAwMTPxTFdiSFx1MDAwMchcZoRNoyfinYnYuLK8XFxcdTAwMGVrRCC1p1xynsnijNO490zFRjvXolx1MDAwM6HkxUdcdTAwMTVcdTAwMWLjXHUwMDA24T3XnUnCR6bYNkYy2TaWRfJcdTAwMTNl+Xnwk95cdTAwMTn/N5xcdTAwMTFcdEltdKRImlwijCZcdTAwMGbV2cuPrZVMq2zk9lx1MDAxM+H25Fx1MDAwMkQljmhcbniKd6axOop21kk4KC2jsyGMotXVyOJcdTAwMTnH4PYvaOsxXHUwMDFiJ8Bmt8HsdP5+XHUwMDFh5/GLo9hcdTAwMTkpZVRThqNlRInTmvbSVM1kUm1qMlx1MDAxOYCgXHUwMDEzNfQwXHUwMDBimqh4q2pCwlM8ccBqmbDpp+1cdTAwMWFcdTAwMWOVvJfhhougo9l7XHUwMDE57r+PnT86JFxcnHnNt5WdqXb2Mzya1cXtrrRcdTAwMDPNb4dlW22qXd4tP11cdTAwMWNcdTAwMDDm2Xb7qTErW92fwud3RX7/0/Mj6aur7jM3o6fO046j3ZaPT1x1MDAxN09/XHUwMDAzPzb3+iJ9<!-- payload-end --></metadata><defs><style class="style-fonts">
      </style></defs><g transform="translate(14.02935414234912 14.029308030402206) rotate(0 17.628274508949858 13.598989534521053)" stroke="none"><path fill="#868e96" d="M -1.24,-1.87 Q -1.24,-1.87 0.55,-2.93 2.35,-4.00 3.48,-4.63 4.62,-5.26 6.23,-5.59 7.85,-5.93 9.48,-5.45 11.11,-4.97 11.98,-3.64 12.85,-2.30 14.81,0.65 16.77,3.62 17.83,4.68 18.89,5.74 19.88,6.40 20.86,7.07 22.05,7.23 23.24,7.40 25.46,7.49 27.69,7.57 29.00,7.57 30.31,7.56 32.38,7.51 34.45,7.45 35.55,7.43 36.65,7.40 38.72,8.06 40.79,8.72 41.41,10.54 42.04,12.37 41.65,13.60 41.27,14.82 39.34,16.64 37.41,18.46 35.04,20.05 32.67,21.64 29.66,23.66 26.65,25.69 24.73,26.83 22.81,27.97 21.33,28.61 19.84,29.25 18.79,30.11 17.74,30.97 15.01,31.63 12.29,32.30 10.49,30.29 8.69,28.28 7.68,26.44 6.67,24.61 4.94,21.89 3.21,19.17 1.63,16.83 0.04,14.49 -1.50,11.99 -3.05,9.50 -3.83,8.14 -4.61,6.77 -4.95,5.38 -5.29,4.00 -3.32,1.42 -1.36,-1.14 -1.14,-1.33 -0.92,-1.52 -0.65,-1.63 -0.38,-1.73 -0.10,-1.75 0.18,-1.77 0.46,-1.69 0.74,-1.61 0.98,-1.45 1.22,-1.29 1.39,-1.06 1.57,-0.84 1.66,-0.56 1.75,-0.29 1.75,-0.00 1.75,0.28 1.66,0.55 1.57,0.82 1.40,1.05 1.22,1.28 0.99,1.45 0.75,1.61 0.47,1.69 0.19,1.77 -0.08,1.75 -0.37,1.74 -0.64,1.63 -0.91,1.52 -1.13,1.34 -1.35,1.15 -1.50,0.91 -1.65,0.66 -1.71,0.38 -1.77,0.10 -1.74,-0.18 -1.71,-0.47 -1.59,-0.73 -1.47,-0.99 -1.28,-1.20 -1.08,-1.41 -0.82,-1.55 -0.57,-1.68 -0.29,-1.73 -0.00,-1.78 0.27,-1.73 0.56,-1.69 0.81,-1.55 1.07,-1.42 1.27,-1.21 1.47,-1.00 1.59,-0.74 1.71,-0.48 1.74,-0.19 1.77,0.09 1.71,0.37 1.65,0.65 1.50,0.90 1.36,1.14 1.36,1.14 1.36,1.14 -0.05,3.17 -1.46,5.19 -0.91,6.47 -0.35,7.76 1.23,10.13 2.83,12.50 4.55,14.79 6.28,17.09 8.26,19.82 10.23,22.56 11.12,24.03 12.00,25.49 13.14,26.50 14.28,27.51 15.45,27.19 16.62,26.86 17.51,26.26 18.40,25.66 19.62,25.29 20.84,24.91 22.57,23.68 24.30,22.44 27.14,20.23 29.98,18.03 31.83,16.47 33.68,14.92 35.16,13.82 36.64,12.73 35.54,12.71 34.44,12.68 32.35,12.61 30.26,12.54 28.94,12.51 27.62,12.48 25.03,12.39 22.45,12.31 21.27,12.02 20.08,11.74 19.15,11.22 18.21,10.70 17.02,9.76 15.82,8.82 14.47,7.47 13.13,6.12 11.56,4.09 9.98,2.06 9.21,0.27 8.43,-1.50 6.51,-1.06 4.59,-0.63 2.92,0.62 1.24,1.87 1.00,1.99 0.76,2.11 0.49,2.17 0.23,2.23 -0.03,2.23 -0.30,2.22 -0.56,2.15 -0.83,2.09 -1.06,1.96 -1.30,1.83 -1.50,1.64 -1.70,1.46 -1.85,1.23 -2.00,1.01 -2.10,0.75 -2.19,0.50 -2.22,0.23 -2.24,-0.03 -2.21,-0.30 -2.17,-0.57 -2.07,-0.82 -1.97,-1.07 -1.81,-1.29 -1.65,-1.51 -1.45,-1.69 -1.24,-1.87 -1.24,-1.87 L -1.24,-1.87 Z"></path></g></svg>