<?xml version="1.0" standalone="no"?>
<!DOCTYPE svg PUBLIC "-//W3C//DTD SVG 1.1//EN" "http://www.w3.org/Graphics/SVG/1.1/DTD/svg11.dtd">
<svg version="1.1" xmlns="http://www.w3.org/2000/svg" viewBox="0 0 43.16872492669302 82.45458197499491" width="43.16872492669302" height="82.45458197499491"><!-- svg-source:excalidraw --><metadata><!-- payload-type:application/vnd.excalidraw+json --><!-- payload-version:2 --><!-- payload-start -->eyJ2ZXJzaW9uIjoiMSIsImVuY29kaW5nIjoiYnN0cmluZyIsImNvbXByZXNzZWQiOnRydWUsImVuY29kZWQiOiJ4nO1YTW/bRlx1MDAxML37V1xiyjVmZma/c2vTOlxiWlx1MDAxNEl9aIEgXHUwMDA3RqJtwlx1MDAxNKmSlFx1MDAxZNfwf+8jpYgmnYhuXHUwMDE4X4pcbrAh7c68nZ2PN7t7ezSbzeubdTJ/OZsnn1x1MDAxNnGWLsv4ev68XHUwMDE5v0rKKi1yTEn7uyo25aKVvKjrdfXyxYtOI1pcdTAwMTSrrVaSJaskryvIvcfv2ey2/Y+ZdNnortbnZ5ev3736+8+Tm5XJ1WmS//C2VW2FPlx1MDAxYnNWJsnelHbmU2OId5FRwSijxGlLWu+nbzB9rCUyIbBnRdZcdTAwMTlHaj99nS7ri1x1MDAwNoEjXHUwMDA2gnbeXHUwMDE4w950XHUwMDAwXHUwMDE3SXp+UUNcdTAwMDQgipxcdTAwMGbGMZNy5PdcInF+njXW0X6kqsviMnlVZEXZWP3MW59cdTAwMDTbXHUwMDE5/TFeXFyel8UmX+5l6jLOq3VcXMJJndxZmmWn9U2LXHUwMDBlR8Op88FcdTAwMWF/7DbAg/GvaWHR84s8qaqeTrGOXHUwMDE3ad34iqnbRWPh+s2yjdmHzqYyXiVvmqDlmyzbXHUwMDBmp/kyaWIxj3/vrZYvd6v1pCuEXHUwMDExY9Y7LVwi3Pmyyy5Dw8HfirxNNFx1MDAwNFKIvLhOLa1+QobVLehZnFVJ5+rGhJ+77OuZsVkv461cdTAwMTI7XHUwMDE32Fx1MDAwNcSVKeznszS/XHUwMDFj6mTF4vJcdTAwMGLrrIv0fno3n+7brMuN9sf++4fnX5TmiMgpNtpcdTAwMDXLylx1MDAwNS331Y8lXCLW1jlCKjqttbVcdTAwMTNcdTAwMDF1RFx1MDAxMpTRrEXpXHUwMDAw0TG8vlx1MDAwNYaU6eHZiLRcbt4wsXHWUZiI51wiMqywz6BgvbI8XHUwMDExL0RkTXDOXHUwMDFhUdaQVWN4XG5cdTAwMGXiXHUwMDEwxFx1MDAxOFCAh6cm4m1cdTAwMWROnlx1MDAxNGkg6zBccu6Bv3twjOh7IGonYMhgRY/hbf1NZDxzINNcdTAwMTHm0+AhWt5cdTAwMDVHQkhRpdmP4XngeWuFnTjDwjJcdTAwMTGPKUJ5SJNdXHUwMDFjwPFsplx1MDAwMj7Q6Fx1MDAwM7brKVx1MDAxNVx1MDAwNGFcdTAwMTN0lPFcdTAwMDLWXHUwMDExk1i43Gk0ueD8tIxhXHUwMDAzvIDYuabtgf36Llx1MDAxYzh4lFx1MDAwZthFLNpcIlx1MDAwN8UwW2xtWv2yj5pQXHUwMDE4g/pwimDBNH7hXHUwMDAwvCDgXHUwMDAzr1x1MDAxNVRcdTAwMDfuM1x1MDAxMSlcdTAwMGLrsGH8Ifyj/EJcdTAwMTH4xSpRzlx1MDAwNNLoY1x1MDAxM/n0MN5D+plcYvjvO8hXT0hPgTfaIFx1MDAwZmr3m10gN95+XHUwMDBlwW33piiYIIItyiS0b1xi5SG4fiNcdTAwMTE7atzhStjWPVuygNSax1x1MDAwYvVg4X9nuD7LgbRG4WzEXHKFeVFcbs5Dp3pCuGFcdTAwMTNx47s9SMK7NktwICP13CNOeYfx+j1cdHeliXjblkSIkyg09qlwXHUwMDAz54732MNwvTzXOFx1MDAwMU7D21x1MDAxMiqyWZCdxvnxXHUwMDBlezBZREVsPXA8a1xcWdmPnqFcdTAwMGWXhsB4r8Aq3iNXXGJcdTAwMWM8XHUwMDExXHUwMDBms1x1MDAwMfchwV7BfGCXaS1bfCRkRCNcdTAwMThNv554XHUwMDAwUFx1MDAxNN0n0UdUxrfCXHUwMDFkXHJg5+tcdTAwMTLX2Vxy/vVvxVW62mS4S77dTWO2LjdJO323lVx1MDAxYbx45H+pTXl9XHUwMDFjTuzrX39xi2Onrk5OXHUwMDFm++KhQDaOPJhVcMow3fWmffBwXHUwMDExXHUwMDBlRVxuW8VR0Gtt7IP3XHUwMDBlUFx1MDAxNVF3/98/clxmxv9/2ei9bJw+/mWDrfU4rXu/J5F7T1x1MDAxYm449vllQ2vwqZbwn33Y6OdXN/KdXHUwMDBi7mhcdTAwMDcwj9fr01x1MDAxYVKY3Zbf/CpNrn98mKTPztrP/GhXrk2Ctkve3lx1MDAxZN39XHUwMDAzXHUwMDE4xVxiVCJ9<!-- payload-end --></metadata><defs><style class="style-fonts">
      </style></defs><g transform="translate(10 22.087970203153418) rotate(0 10.57697392775927 9.06597765236512)" stroke="none"><path fill="#868e96" d="M -2.45,-0.81 Q -2.45,-0.81 -1.79,-2.52 -1.13,-4.23 -0.88,-6.13 -0.62,-8.02 -0.03,-9.09 0.55,-10.16 1.84,-11.19 3.12,-12.23 4.72,-13.40 6.32,-14.56 7.68,-14.72 9.04,-14.88 10.68,-14.17 12.32,-13.45 14.10,-12.35 15.87,-11.26 17.44,-10.24 19.01,-9.22 20.29,-8.10 21.56,-6.97 22.13,-6.00 22.70,-5.04 23.42,-3.35 24.13,-1.65 24.27,-0.29 24.42,1.06 24.45,2.21 24.48,3.35 23.62,5.41 22.76,7.46 21.50,8.59 20.23,9.72 19.39,10.51 18.54,11.30 18.50,13.08 18.45,14.87 18.40,16.09 18.34,17.31 18.55,18.97 18.76,20.63 19.33,22.87 19.91,25.10 20.57,27.39 21.24,29.68 21.24,30.19 21.25,30.70 21.09,31.18 20.93,31.67 20.62,32.08 20.32,32.49 19.90,32.78 19.48,33.07 18.99,33.21 18.50,33.35 17.99,33.33 17.48,33.30 17.00,33.12 16.53,32.93 16.13,32.61 15.74,32.28 15.47,31.85 15.21,31.41 15.09,30.91 14.98,30.42 15.03,29.91 15.08,29.40 15.29,28.93 15.50,28.47 15.85,28.09 16.19,27.72 16.64,27.48 17.09,27.23 17.59,27.15 18.10,27.06 18.60,27.14 19.11,27.21 19.56,27.45 20.01,27.68 20.37,28.05 20.72,28.42 20.94,28.88 21.16,29.34 21.22,29.85 21.28,30.36 21.17,30.86 21.07,31.36 20.81,31.80 20.55,32.24 20.16,32.57 19.78,32.90 19.31,33.10 18.83,33.29 18.32,33.32 17.81,33.36 17.32,33.22 16.83,33.09 16.40,32.81 15.98,32.53 15.66,32.12 15.35,31.72 15.18,31.24 15.02,30.75 15.02,30.75 15.02,30.75 14.90,29.61 14.78,28.47 14.19,26.55 13.59,24.64 13.10,23.36 12.62,22.09 12.26,19.67 11.90,17.25 11.90,14.95 11.89,12.66 12.04,11.51 12.18,10.36 12.82,9.21 13.45,8.06 14.28,7.22 15.11,6.38 16.16,5.48 17.21,4.58 17.51,2.98 17.81,1.38 17.55,-0.06 17.29,-1.51 16.76,-2.48 16.24,-3.45 15.27,-4.31 14.30,-5.17 12.77,-6.18 11.24,-7.20 10.07,-8.46 8.89,-9.72 7.80,-8.85 6.70,-7.98 5.52,-7.54 4.34,-7.10 4.21,-6.02 4.08,-4.95 3.76,-3.83 3.44,-2.71 2.95,-0.94 2.45,0.81 2.31,1.09 2.18,1.38 1.98,1.62 1.79,1.86 1.54,2.05 1.29,2.23 1.00,2.36 0.72,2.48 0.41,2.53 0.10,2.58 -0.20,2.55 -0.51,2.53 -0.81,2.43 -1.10,2.33 -1.37,2.16 -1.63,2.00 -1.85,1.77 -2.06,1.55 -2.22,1.28 -2.37,1.01 -2.46,0.71 -2.55,0.41 -2.56,0.10 -2.57,-0.20 -2.51,-0.51 -2.45,-0.81 -2.45,-0.81 L -2.45,-0.81 Z"></path></g><g transform="translate(33.16862492669304 72.4544819749949) rotate(0 0.00004999999998744897 0.00004999999999988347)" stroke="none"><path fill="#868e96" d="M 1.57,-1.57 Q 1.57,-1.57 1.77,-1.27 1.98,-0.98 2.09,-0.64 2.20,-0.29 2.19,0.05 2.18,0.41 2.05,0.75 1.93,1.09 1.70,1.37 1.48,1.65 1.18,1.84 0.87,2.04 0.52,2.12 0.18,2.21 -0.17,2.18 -0.53,2.15 -0.86,2.01 -1.19,1.87 -1.46,1.63 -1.73,1.39 -1.90,1.07 -2.08,0.76 -2.15,0.41 -2.21,0.05 -2.17,-0.29 -2.12,-0.65 -1.96,-0.97 -1.80,-1.29 -1.54,-1.54 -1.29,-1.80 -0.97,-1.96 -0.65,-2.12 -0.29,-2.17 0.06,-2.21 0.41,-2.15 0.76,-2.08 1.07,-1.90 1.39,-1.73 1.63,-1.46 1.87,-1.19 2.01,-0.86 2.15,-0.53 2.18,-0.17 2.21,0.18 2.12,0.52 2.03,0.87 1.84,1.18 1.65,1.48 1.37,1.70 1.09,1.93 0.75,2.05 0.41,2.18 0.05,2.19 -0.30,2.20 -0.64,2.09 -0.98,1.98 -1.27,1.77 -1.57,1.56 -1.57,1.57 -1.57,1.57 -1.73,1.35 -1.90,1.14 -2.01,0.90 -2.12,0.66 -2.16,0.39 -2.21,0.13 -2.20,-0.13 -2.18,-0.40 -2.10,-0.65 -2.02,-0.91 -1.88,-1.14 -1.74,-1.36 -1.55,-1.55 -1.36,-1.74 -1.14,-1.88 -0.91,-2.02 -0.65,-2.10 -0.40,-2.18 -0.13,-2.20 0.13,-2.21 0.39,-2.16 0.66,-2.12 0.90,-2.01 1.14,-1.90 1.35,-1.73 1.57,-1.57 1.57,-1.57 L 1.57,-1.57 Z"></path></g></svg>