<?xml version="1.0" standalone="no"?>
<!DOCTYPE svg PUBLIC "-//W3C//DTD SVG 1.1//EN" "http://www.w3.org/Graphics/SVG/1.1/DTD/svg11.dtd">
<svg version="1.1" xmlns="http://www.w3.org/2000/svg" viewBox="0 0 77.33331298828125 77.33331298828125" width="77.33331298828125" height="77.33331298828125"><!-- svg-source:excalidraw --><metadata><!-- payload-type:application/vnd.excalidraw+json --><!-- payload-version:2 --><!-- payload-start -->eyJ2ZXJzaW9uIjoiMSIsImVuY29kaW5nIjoiYnN0cmluZyIsImNvbXByZXNzZWQiOnRydWUsImVuY29kZWQiOiJ4nH1STU/jMFx1MDAxNLz3V0TmupQ4TVx1MDAxM5tcdTAwMWK7i1ZcdTAwMWPgQCUquuJgktfGW9e2YodSof53bNO11VxucKRInnlcdTAwMWbjee9tlGXI7jSgy1xmwWvDXHUwMDA0b3u2RT88/lx1MDAwMr3hSjqqXGJ3o4a+XHSRnbXaXFxeXFykjHGjNlx1MDAxZlkgYFx1MDAwM9JcdTAwMWFcdTAwMTf3192z7C38XHUwMDFkw1ufq6+Hez4vtXxYKPU4XHUwMDFi/vwzi9uQXHUwMDFhgqJcdTAwMTghuDaQiFeHTmk5rtwhdY5xjVx0iezOseclLsdk4lx1MDAwZSkxndJqXHUwMDEy6S1vbedcdTAwMGLUY8/jglx1MDAxMlJcdTAwMTBcXExjRFx1MDAwN3zV2W9DmFxcXHSvLY+Isb1awy8lVO81n2HwX9L8zJr1qleDbL+OWXIhZnZcdTAwMTcqO4udneik/vwgvjjBv8pyXHJXnVx1MDAwNONHgCOqNGu49T7hPL3Aq9M3bZjWU9LUs1xy3PhxyUGIXGJz2YJcdTAwMWZcdTAwMDNiV0fdZHvo9n/UaY7FXHUwMDAx2SftXHUwMDAwvnCF82KCK1pGXCKtXHUwMDFipafgnZJh84p8UlaEUJxewM1vt3I2XHUwMDE0XTJhILnvlV2ndTx6y6Bb9pGE65rmpKqnXHUwMDE4l0mN4HJ9miNUs059XHUwMDAyunf/4Fx1MDAxYmJaz6wrXHUwMDE5bUAvXHUwMDFjtj8/2YBlOGh0cMVvXHUwMDAwXHUwMDA09/aj/TvVlOdSIn0=<!-- payload-end --></metadata><defs><style class="style-fonts">
      </style></defs><g stroke-linecap="round" transform="translate(10 10) rotate(0 28.666656494140625 28.666656494140625)"><path d="M31.93 0.28 C37.78 0.77, 46.44 5.35, 50.51 9.85 C54.59 14.35, 56.1 21.27, 56.39 27.3 C56.67 33.33, 55.65 41.22, 52.24 46.03 C48.83 50.84, 42.17 54.82, 35.92 56.17 C29.67 57.51, 20.48 56.75, 14.74 54.12 C8.99 51.48, 3.65 45.99, 1.46 40.36 C-0.74 34.73, -0.51 26.27, 1.58 20.35 C3.66 14.44, 7.86 7.84, 13.97 4.87 C20.09 1.89, 33.5 2.58, 38.26 2.52 C43.03 2.46, 42.88 4.3, 42.55 4.49 M37.25 2.24 C43.06 3.64, 48.47 6.82, 51.97 12.01 C55.48 17.21, 58.93 27.1, 58.28 33.41 C57.63 39.72, 52.59 45.65, 48.05 49.88 C43.52 54.11, 37.21 58.68, 31.07 58.78 C24.93 58.88, 16.45 54.2, 11.22 50.5 C5.99 46.79, 0.89 42.52, -0.3 36.54 C-1.49 30.57, 1.34 20.15, 4.07 14.62 C6.8 9.1, 10.37 5.57, 16.07 3.4 C21.77 1.23, 34.7 1.63, 38.26 1.58 C41.82 1.53, 37.74 2.84, 37.44 3.11" stroke="none" stroke-width="0" fill="#1e1e1e"></path><path d="M23.06 1.19 C28.54 -0.12, 36.28 0.95, 41.73 3.71 C47.18 6.46, 53.56 12.07, 55.75 17.7 C57.93 23.33, 56.85 31.45, 54.86 37.49 C52.88 43.52, 48.97 50.8, 43.84 53.92 C38.7 57.03, 30.29 57.07, 24.06 56.17 C17.82 55.27, 10.32 53.11, 6.42 48.5 C2.52 43.88, 0.54 34.83, 0.68 28.49 C0.81 22.14, 2.65 15.15, 7.24 10.44 C11.82 5.74, 23.77 1.86, 28.19 0.27 C32.62 -1.33, 33.88 0.27, 33.8 0.85 M40.44 1.68 C46.06 3.61, 51.97 10.13, 54.49 15.55 C57 20.97, 57 28.23, 55.56 34.21 C54.12 40.19, 50.63 47.46, 45.86 51.41 C41.09 55.36, 33.17 58.08, 26.95 57.92 C20.74 57.76, 12.96 54.73, 8.56 50.43 C4.16 46.14, 1.11 38.32, 0.56 32.13 C0.01 25.93, 1.91 18.5, 5.25 13.25 C8.58 7.99, 14.73 2.52, 20.57 0.62 C26.42 -1.28, 37.2 1.44, 40.33 1.83 C43.47 2.22, 39.84 2.26, 39.38 2.96" stroke="#1e1e1e" stroke-width="2" fill="none"></path></g></svg>